<svg  width="32" height="32" viewBox="0 0 42 42" fill="none" xmlns="http://www.w3.org/2000/svg">
<path fill="#A7C7E7" d="M14.5833 26.9104V28.125C14.5833 30.6114 15.5711 32.996 17.3292 34.7541C19.0874 36.5123 21.4719 37.5 23.9583 37.5C26.4447 37.5 28.8293 36.5123 30.5875 34.7541C32.3456 32.996 33.3333 30.6114 33.3333 28.125V24.6458C31.9427 24.1544 30.7706 23.1871 30.0243 21.915C29.2779 20.6429 29.0052 19.1479 29.2546 17.6942C29.5039 16.2405 30.2591 14.9218 31.3867 13.9711C32.5144 13.0204 33.9418 12.499 35.4167 12.499C36.8916 12.499 38.319 13.0204 39.4466 13.9711C40.5742 14.9218 41.3295 16.2405 41.5788 17.6942C41.8281 19.1479 41.5555 20.6429 40.8091 21.915C40.0627 23.1871 38.8906 24.1544 37.5 24.6458V28.125C37.5 31.7165 36.0733 35.1609 33.5337 37.7004C30.9942 40.24 27.5498 41.6667 23.9583 41.6667C20.3669 41.6667 16.9225 40.24 14.3829 37.7004C11.8434 35.1609 10.4167 31.7165 10.4167 28.125V26.9104C7.50402 26.4172 4.86003 24.9088 2.95333 22.6524C1.04664 20.396 0.000378915 17.5374 0 14.5833L0 4.16667C0 3.0616 0.438987 2.00179 1.22039 1.22039C2.00179 0.438987 3.0616 0 4.16667 0L6.25 0C6.80253 0 7.33244 0.219493 7.72314 0.610194C8.11384 1.0009 8.33333 1.5308 8.33333 2.08333C8.33333 2.63587 8.11384 3.16577 7.72314 3.55647C7.33244 3.94717 6.80253 4.16667 6.25 4.16667H4.16667V14.5833C4.16667 16.7935 5.04464 18.9131 6.60744 20.4759C8.17025 22.0387 10.2899 22.9167 12.5 22.9167C14.7101 22.9167 16.8298 22.0387 18.3926 20.4759C19.9554 18.9131 20.8333 16.7935 20.8333 14.5833V4.16667H18.75C18.1975 4.16667 17.6676 3.94717 17.2769 3.55647C16.8862 3.16577 16.6667 2.63587 16.6667 2.08333C16.6667 1.5308 16.8862 1.0009 17.2769 0.610194C17.6676 0.219493 18.1975 0 18.75 0L20.8333 0C21.9384 0 22.9982 0.438987 23.7796 1.22039C24.561 2.00179 25 3.0616 25 4.16667V14.5833C24.9996 17.5374 23.9534 20.396 22.0467 22.6524C20.14 24.9088 17.496 26.4172 14.5833 26.9104ZM35.4167 20.8333C35.9692 20.8333 36.4991 20.6138 36.8898 20.2231C37.2805 19.8324 37.5 19.3025 37.5 18.75C37.5 18.1975 37.2805 17.6676 36.8898 17.2769C36.4991 16.8862 35.9692 16.6667 35.4167 16.6667C34.8641 16.6667 34.3342 16.8862 33.9435 17.2769C33.5528 17.6676 33.3333 18.1975 33.3333 18.75C33.3333 19.3025 33.5528 19.8324 33.9435 20.2231C34.3342 20.6138 34.8641 20.8333 35.4167 20.8333Z" />
</svg>

