<svg width="60" height="60" viewBox="0 0 60 60" fill="none" xmlns="http://www.w3.org/2000/svg">
<path d="M30.0002 5C26.7171 5 23.4662 5.64664 20.4331 6.90301C17.3999 8.15938 14.6439 10.0009 12.3225 12.3223C7.63407 17.0107 5.00015 23.3696 5.00015 30C4.9783 35.7728 6.97713 41.3713 10.6502 45.825L5.65015 50.825C5.30326 51.1766 5.06827 51.623 4.97483 52.108C4.8814 52.5929 4.9337 53.0947 5.12515 53.55C5.3328 53.9998 5.66941 54.3778 6.09227 54.636C6.51513 54.8941 7.00516 55.0208 7.50015 55H30.0002C36.6306 55 42.9894 52.3661 47.6778 47.6777C52.3662 42.9893 55.0002 36.6304 55.0002 30C55.0002 23.3696 52.3662 17.0107 47.6778 12.3223C42.9894 7.63392 36.6306 5 30.0002 5ZM30.0002 50H13.5252L15.8502 47.675C16.3158 47.2066 16.5771 46.573 16.5771 45.9125C16.5771 45.252 16.3158 44.6184 15.8502 44.15C12.5766 40.8801 10.5381 36.5763 10.0819 31.972C9.62567 27.3676 10.78 22.7475 13.3482 18.8988C15.9164 15.0501 19.7396 12.2109 24.1664 10.8649C28.5933 9.51897 33.3498 9.74951 37.6257 11.5173C41.9016 13.2851 45.4323 16.4807 47.6163 20.5597C49.8002 24.6388 50.5023 29.3489 49.603 33.8875C48.7036 38.4262 46.2584 42.5126 42.684 45.4506C39.1096 48.3886 34.6271 49.9964 30.0002 50ZM35.0002 27.5H32.5002V25C32.5002 24.337 32.2368 23.7011 31.7679 23.2322C31.2991 22.7634 30.6632 22.5 30.0002 22.5C29.3371 22.5 28.7012 22.7634 28.2324 23.2322C27.7635 23.7011 27.5002 24.337 27.5002 25V27.5H25.0002C24.3371 27.5 23.7012 27.7634 23.2324 28.2322C22.7635 28.7011 22.5002 29.337 22.5002 30C22.5002 30.663 22.7635 31.2989 23.2324 31.7678C23.7012 32.2366 24.3371 32.5 25.0002 32.5H27.5002V35C27.5002 35.663 27.7635 36.2989 28.2324 36.7678C28.7012 37.2366 29.3371 37.5 30.0002 37.5C30.6632 37.5 31.2991 37.2366 31.7679 36.7678C32.2368 36.2989 32.5002 35.663 32.5002 35V32.5H35.0002C35.6632 32.5 36.2991 32.2366 36.7679 31.7678C37.2368 31.2989 37.5002 30.663 37.5002 30C37.5002 29.337 37.2368 28.7011 36.7679 28.2322C36.2991 27.7634 35.6632 27.5 35.0002 27.5Z" fill="black"/>
</svg>
