<svg width="32" height="32" viewBox="0 0 55 50" fill="none" xmlns="http://www.w3.org/2000/svg">
<path fill="#77DD77" d="M5.12162 24.4225C5.1261 21.5749 5.72474 18.7595 6.87928 16.1564C8.03382 13.5533 9.71884 11.2198 11.8266 9.305L17.9191 15.425V0H2.50162L8.19162 5.655C4.57941 9.01406 2.01116 13.3425 0.794002 18.1226C-0.42316 22.9028 -0.237723 27.9324 1.32814 32.6099C2.894 37.2874 5.77401 41.415 9.62377 44.4989C13.4735 47.5829 18.1301 49.4927 23.0366 50V44.8075C18.0828 44.1681 13.5316 41.7459 10.2343 37.994C6.93696 34.2421 5.11942 29.4174 5.12162 24.4225ZM55.0016 25.7075C55.0183 19.3332 52.6735 13.1786 48.4197 8.4313C44.1659 3.68398 38.3045 0.680358 31.9666 0V5.1925C36.9314 5.86125 41.4844 8.30985 44.7795 12.0832C48.0747 15.8565 49.8877 20.6979 49.8816 25.7075C49.8765 28.536 49.2769 31.3319 48.1219 33.9138C46.9668 36.4957 45.2819 38.8061 43.1766 40.695L36.9666 34.575V50H52.4416L46.8116 44.345C49.3931 41.975 51.4541 39.0946 52.8639 35.8863C54.2737 32.6781 55.0017 29.2119 55.0016 25.7075Z" />
<path fill="#FF8A8A" d="M28.2727 33.0177L26.9302 31.7927C22.1552 27.4628 19.0003 24.6052 19.0003 21.1002C18.9936 20.4286 19.1209 19.7625 19.3749 19.1407C19.6288 18.5189 20.0042 17.954 20.4791 17.4791C20.954 17.0042 21.5189 16.6288 22.1407 16.3749C22.7625 16.1209 23.4286 15.9936 24.1002 16.0003C24.8942 16.0059 25.6777 16.1818 26.398 16.516C27.1182 16.8503 27.7583 17.3351 28.2752 17.9378C28.7919 17.3354 29.4316 16.8508 30.1514 16.5165C30.8712 16.1823 31.6542 16.0063 32.4477 16.0003C33.1193 15.9936 33.7855 16.1209 34.4073 16.3749C35.0291 16.6288 35.594 17.0042 36.0689 17.4791C36.5438 17.954 36.9192 18.5189 37.1731 19.1407C37.4271 19.7625 37.5544 20.4286 37.5477 21.1002C37.5477 24.6052 34.3952 27.4627 29.6177 31.8027L28.2727 33.0177Z" />
</svg>

