<svg width="32" height="32" viewBox="0 0 45 48" fill="none" xmlns="http://www.w3.org/2000/svg">
<defs>
    <linearGradient id="gradient" x1="0%" y1="0%" x2="100%" y2="0%">
    <stop offset="0%" style="stop-color:#FF8A8A;stop-opacity:1" />
      <stop offset="50%" style="stop-color:#FF8A8A;stop-opacity:1" />
      <stop offset="50%" style="stop-color:#A7C7E7 ;stop-opacity:1" />
      <stop offset="100%" style="stop-color:#A7C7E7 ;stop-opacity:1" />
      
    </linearGradient>
  </defs>
<path fill="url(#gradient)" d="M24 0.4375L17.1042 7.33333H7.33333V17.1042L0.4375 24L7.33333 30.8958V40.6667H17.1042L24 47.5625L26.0833 45.4792V36.1458L32.8333 42.8958L35.7917 39.9583L26.0833 30.25V26.0833H30.25L39.9583 35.7917L42.8958 32.8333L36.1458 26.0833H44.8333V21.9167H36.1458L42.8958 15.1667L39.9583 12.2083L30.25 21.9167H26.0833V17.75L35.7917 8.04167L32.8333 5.10417L26.0833 11.8542V2.52083M21.9167 11.6875V15.9375C18.25 16.8958 15.6667 20.2083 15.6667 24C15.6716 25.8455 16.2875 27.6374 17.4182 29.096C18.5488 30.5546 20.1307 31.5977 21.9167 32.0625V36.3125C19.0061 35.8205 16.3636 34.3144 14.4571 32.0609C12.5505 29.8074 11.503 26.9518 11.5 24C11.5 17.8958 15.8958 12.6875 21.9167 11.6875Z" />
</svg>

