<svg width="60" height="60" viewBox="0 0 60 60" fill="none" xmlns="http://www.w3.org/2000/svg">
<path d="M35 35H32.5V32.5C32.5 31.837 32.2366 31.2011 31.7678 30.7322C31.2989 30.2634 30.663 30 30 30C29.337 30 28.7011 30.2634 28.2322 30.7322C27.7634 31.2011 27.5 31.837 27.5 32.5V35H25C24.337 35 23.7011 35.2634 23.2322 35.7322C22.7634 36.2011 22.5 36.837 22.5 37.5C22.5 38.163 22.7634 38.7989 23.2322 39.2678C23.7011 39.7366 24.337 40 25 40H27.5V42.5C27.5 43.163 27.7634 43.7989 28.2322 44.2678C28.7011 44.7366 29.337 45 30 45C30.663 45 31.2989 44.7366 31.7678 44.2678C32.2366 43.7989 32.5 43.163 32.5 42.5V40H35C35.663 40 36.2989 39.7366 36.7678 39.2678C37.2366 38.7989 37.5 38.163 37.5 37.5C37.5 36.837 37.2366 36.2011 36.7678 35.7322C36.2989 35.2634 35.663 35 35 35ZM50 22.35C49.974 22.1203 49.9237 21.8941 49.85 21.675V21.45C49.7298 21.1929 49.5695 20.9567 49.375 20.75L34.375 5.75C34.1683 5.55554 33.9321 5.3952 33.675 5.275H33.45C33.196 5.12935 32.9156 5.03586 32.625 5H17.5C15.5109 5 13.6032 5.79018 12.1967 7.1967C10.7902 8.60322 10 10.5109 10 12.5V47.5C10 49.4891 10.7902 51.3968 12.1967 52.8033C13.6032 54.2098 15.5109 55 17.5 55H42.5C44.4891 55 46.3968 54.2098 47.8033 52.8033C49.2098 51.3968 50 49.4891 50 47.5V22.5V22.35ZM35 13.525L41.475 20H37.5C36.837 20 36.2011 19.7366 35.7322 19.2678C35.2634 18.7989 35 18.163 35 17.5V13.525ZM45 47.5C45 48.163 44.7366 48.7989 44.2678 49.2678C43.7989 49.7366 43.163 50 42.5 50H17.5C16.837 50 16.2011 49.7366 15.7322 49.2678C15.2634 48.7989 15 48.163 15 47.5V12.5C15 11.837 15.2634 11.2011 15.7322 10.7322C16.2011 10.2634 16.837 10 17.5 10H30V17.5C30 19.4891 30.7902 21.3968 32.1967 22.8033C33.6032 24.2098 35.5109 25 37.5 25H45V47.5Z" fill="black"/>
</svg>
