<svg width="32" height="32" viewBox="0 0 50 50" fill="none" xmlns="http://www.w3.org/2000/svg">
  <path fill="orange" d="M13.9687 0.6875C14.4079 0.247836 15.0036 0.000547038 15.625 0L34.375 0C34.9969 0 35.5906 0.246875 36.0312 0.6875L49.3125 13.9687C49.7531 14.4062 50 15.0031 50 15.625V34.375C49.9995 34.9964 49.7522 35.5921 49.3125 36.0312L36.0312 49.3125C35.5921 49.7522 34.9964 49.9995 34.375 50H15.625C15.0036 49.9995 14.4079 49.7522 13.9687 49.3125L0.6875 36.0312C0.247836 35.5921 0.000547038 34.9964 0 34.375L0 15.625C0 15.0031 0.246875 14.4094 0.6875 13.9687L13.9687 0.6875ZM16.5938 4.6875L4.6875 16.5938V33.4062L16.5938 45.3125H33.4062L45.3125 33.4062V16.5938L33.4062 4.6875H16.5938ZM25 12.5C25.6216 12.5 26.2177 12.7469 26.6573 13.1865C27.0968 13.626 27.3438 14.2221 27.3438 14.8438V25.7812C27.3438 26.4029 27.0968 26.999 26.6573 27.4385C26.2177 27.8781 25.6216 28.125 25 28.125C24.3784 28.125 23.7823 27.8781 23.3427 27.4385C22.9032 26.999 22.6562 26.4029 22.6562 25.7812V14.8438C22.6562 14.2221 22.9032 13.626 23.3427 13.1865C23.7823 12.7469 24.3784 12.5 25 12.5ZM25 37.5C24.1712 37.5 23.3763 37.1708 22.7903 36.5847C22.2042 35.9987 21.875 35.2038 21.875 34.375C21.875 33.5462 22.2042 32.7513 22.7903 32.1653C23.3763 31.5792 24.1712 31.25 25 31.25C25.8288 31.25 26.6237 31.5792 27.2097 32.1653C27.7958 32.7513 28.125 33.5462 28.125 34.375C28.125 35.2038 27.7958 35.9987 27.2097 36.5847C26.6237 37.1708 25.8288 37.5 25 37.5Z"  />
</svg>


