<svg width="60" height="60" viewBox="0 0 60 60" fill="none" xmlns="http://www.w3.org/2000/svg">
<path d="M31.25 23.75V18.75H36.25V23.75H41.25V28.75H36.25V33.75H31.25V28.75H26.25V23.75H31.25Z" fill="black"/>
<path fill-rule="evenodd" clip-rule="evenodd" d="M33.75 45C44.105 45 52.5 36.605 52.5 26.25C52.5 15.895 44.105 7.5 33.75 7.5C23.395 7.5 15 15.895 15 26.25C15 31.0325 16.79 35.3962 19.7375 38.7087L18.29 40.1575L16.1588 40.3062L7.5 48.965L11.035 52.5L19.64 43.895L19.8375 42.145L21.52 40.4625C24.9187 43.3959 29.2604 45.0067 33.75 45ZM33.75 42.5C42.725 42.5 50 35.225 50 26.25C50 17.275 42.725 10 33.75 10C24.775 10 17.5 17.275 17.5 26.25C17.5 35.225 24.775 42.5 33.75 42.5Z" fill="black"/>
<path fill-rule="evenodd" clip-rule="evenodd" d="M20.6713 37.8775L21.455 38.7587L22.335 39.515C25.2955 42.0702 29.0295 43.5553 32.9363 43.7313C23.8425 43.315 16.5575 35.9575 16.26 26.8325C16.3899 30.9177 17.9506 34.8273 20.6713 37.8775ZM18.8437 41.3713L16.7125 41.5212L9.26875 48.965L11.0363 50.7325L18.4487 43.32L18.6462 41.57L18.8437 41.3713ZM19.6413 43.8963L11.035 52.5L7.5 48.965L16.1588 40.3062L18.29 40.1562L19.7375 38.7087C16.6796 35.28 14.9929 30.8443 15 26.25C15 15.895 23.395 7.5 33.75 7.5C44.105 7.5 52.5 15.895 52.5 26.25C52.5 36.605 44.105 45 33.75 45C29.2604 45.0067 24.9187 43.3959 21.52 40.4625L19.8375 42.145L19.6413 43.8963ZM32.5 25H27.5V27.5H32.5V32.5H35V27.5H40V25H35V20H32.5V25ZM36.25 18.75V23.75H41.25V28.75H36.25V33.75H31.25V28.75H26.25V23.75H31.25V18.75H36.25ZM50 26.25C50 35.225 42.725 42.5 33.75 42.5C24.775 42.5 17.5 35.225 17.5 26.25C17.5 17.275 24.775 10 33.75 10C42.725 10 50 17.275 50 26.25Z" fill="black"/>
</svg>
