<svg width="276" height="191" viewBox="0 0 276 191" fill="none" xmlns="http://www.w3.org/2000/svg">
<ellipse cx="61.6071" cy="127.333" rx="61.6071" ry="63.6667" fill="white"/>
<ellipse cx="135.536" cy="63.6667" rx="61.6071" ry="63.6667" fill="white"/>
<ellipse cx="197.759" cy="64.3033" rx="38.8125" ry="37.5633" fill="white"/>
<ellipse cx="214.393" cy="127.333" rx="61.6071" ry="63.6667" fill="white"/>
<rect x="61.6069" y="124.787" width="160.179" height="66.2133" fill="white"/>
<path d="M149.5 103.825L164.98 119.3C166.386 120.707 168.294 121.498 170.283 121.498C172.273 121.499 174.181 120.709 175.588 119.303C176.994 117.896 177.785 115.989 177.786 113.999C177.786 112.01 176.996 110.102 175.59 108.695L147.305 80.41C146.609 79.713 145.782 79.1602 144.871 78.783C143.961 78.4058 142.985 78.2116 142 78.2116C141.015 78.2116 140.039 78.4058 139.129 78.783C138.219 79.1602 137.392 79.713 136.695 80.41L108.41 108.69C107.713 109.387 107.161 110.214 106.784 111.124C106.407 112.034 106.213 113.01 106.213 113.995C106.213 114.98 106.407 115.956 106.784 116.866C107.161 117.776 107.713 118.603 108.41 119.3C109.107 119.997 109.934 120.549 110.844 120.926C111.754 121.303 112.73 121.497 113.715 121.497C114.7 121.497 115.676 121.303 116.586 120.926C117.496 120.549 118.323 119.997 119.02 119.3L134.5 103.825V161.5C134.5 163.489 135.29 165.397 136.697 166.803C138.103 168.21 140.011 169 142 169C143.989 169 145.897 168.21 147.303 166.803C148.71 165.397 149.5 163.489 149.5 161.5V103.825Z" fill="#2C71D9"/>
</svg>
