<svg width="80" height="80" viewBox="0 0 80 80" fill="none" xmlns="http://www.w3.org/2000/svg">
<path d="M49.4375 41.5625V63.4375H27.5625V41.5625H49.4375ZM49.4375 39.375H27.5625C26.9823 39.375 26.4259 39.6055 26.0157 40.0157C25.6055 40.4259 25.375 40.9823 25.375 41.5625V63.4375C25.375 64.0177 25.6055 64.5741 26.0157 64.9843C26.4259 65.3945 26.9823 65.625 27.5625 65.625H49.4375C50.0177 65.625 50.5741 65.3945 50.9843 64.9843C51.3945 64.5741 51.625 64.0177 51.625 63.4375V41.5625C51.625 40.9823 51.3945 40.4259 50.9843 40.0157C50.5741 39.6055 50.0177 39.375 49.4375 39.375Z" fill="white"/>
<path d="M45.0625 52.5V50.3125H39.5938V48.125H42.875V45.9375H39.5938V43.75H37.4062V45.9375H34.125V48.125H37.4062V50.3125H31.9375V52.5H37.4062V54.6875H31.9375V56.875H37.4062V59.0625H34.125V61.25H42.875V59.0625H39.5938V56.875H45.0625V54.6875H39.5938V52.5H45.0625Z" fill="white"/>
<path d="M46.6668 36.6667C44.0147 36.6667 41.4711 35.6131 39.5958 33.7377C37.7204 31.8624 36.6668 29.3188 36.6668 26.6667V13.3333H23.3335C21.5654 13.3333 19.8697 14.0357 18.6195 15.286C17.3692 16.5362 16.6668 18.2319 16.6668 20V63.3333C16.6668 65.1014 17.3692 66.7971 18.6195 68.0474C19.8697 69.2976 21.5654 70 23.3335 70H53.3335C55.1016 70 56.7973 69.2976 58.0475 68.0474C59.2978 66.7971 60.0002 65.1014 60.0002 63.3333V36.6667H46.6668ZM40.0002 26.6667C40.0002 28.4348 40.7025 30.1305 41.9528 31.3807C43.203 32.631 44.8987 33.3333 46.6668 33.3333H58.6335L40.0002 14.7V26.6667ZM23.3335 10H40.0002L63.3335 33.3333V63.3333C63.3335 65.9855 62.2799 68.529 60.4046 70.4044C58.5292 72.2798 55.9857 73.3333 53.3335 73.3333H23.3335C20.6813 73.3333 18.1378 72.2798 16.2624 70.4044C14.3871 68.529 13.3335 65.9855 13.3335 63.3333V20C13.3335 17.3478 14.3871 14.8043 16.2624 12.9289C18.1378 11.0536 20.6813 10 23.3335 10Z" fill="white"/>
</svg>
