<svg width="112" height="34" viewBox="0 0 112 34" fill="none" xmlns="http://www.w3.org/2000/svg">
<path d="M99.9889 25.3542C97.8484 25.3542 95.9817 24.9142 94.3889 24.0342C92.796 23.1542 91.5515 21.9473 90.6555 20.4136C89.7595 18.8799 89.3115 17.1199 89.3115 15.1336C89.3115 13.5999 89.5604 12.1919 90.0582 10.9096C90.556 9.62733 91.2529 8.52104 92.1489 7.59076C93.0449 6.63533 94.1026 5.90619 95.3222 5.40333C96.5666 4.87533 97.9106 4.61133 99.3542 4.61133C100.698 4.61133 101.943 4.86276 103.088 5.36561C104.232 5.84333 105.216 6.53476 106.037 7.4399C106.883 8.3199 107.53 9.36333 107.978 10.5702C108.426 11.777 108.625 13.097 108.576 14.5302L108.538 16.1896H92.6715L91.8129 12.9085H104.17L103.573 13.5873V12.7576C103.523 12.0788 103.299 11.4628 102.901 10.9096C102.528 10.3565 102.042 9.92904 101.445 9.62733C100.848 9.32562 100.176 9.17476 99.4289 9.17476C98.3337 9.17476 97.4004 9.38847 96.6289 9.8159C95.8822 10.2433 95.3097 10.8719 94.9115 11.7016C94.5133 12.5313 94.3142 13.537 94.3142 14.7188C94.3142 15.9256 94.5631 16.969 95.0609 17.849C95.5835 18.729 96.3053 19.4205 97.2262 19.9233C98.172 20.401 99.2795 20.6399 100.549 20.6399C101.42 20.6399 102.216 20.5016 102.938 20.225C103.66 19.9485 104.432 19.4708 105.253 18.7919L107.792 22.3748C107.07 23.0285 106.273 23.5816 105.402 24.0342C104.531 24.4616 103.635 24.7885 102.714 25.0148C101.793 25.241 100.885 25.3542 99.9889 25.3542Z" fill="black"/>
<path d="M75.0869 24.977V5.02619H80.2016L80.3882 11.4376L79.4922 10.1176C79.7909 9.08676 80.2762 8.15647 80.9482 7.32676C81.6202 6.4719 82.4042 5.80561 83.3002 5.3279C84.2211 4.85019 85.1794 4.61133 86.1749 4.61133C86.598 4.61133 87.0087 4.64904 87.4069 4.72447C87.8051 4.7999 88.1411 4.8879 88.4149 4.98847L86.9962 10.8719C86.6976 10.721 86.3367 10.5953 85.9136 10.4948C85.4905 10.369 85.0549 10.3062 84.6069 10.3062C84.0096 10.3062 83.4496 10.4193 82.9269 10.6456C82.4291 10.8468 81.9936 11.1485 81.6202 11.5508C81.2469 11.9279 80.9482 12.3805 80.7242 12.9085C80.5251 13.4365 80.4256 14.0148 80.4256 14.6433V24.977H75.0869Z" fill="black"/>
<path d="M58.1613 25.3542C56.5186 25.3542 55.0377 24.9016 53.7186 23.9965C52.3995 23.0913 51.3542 21.8593 50.5826 20.3005C49.8111 18.7416 49.4253 16.9565 49.4253 14.945C49.4253 12.9336 49.8111 11.161 50.5826 9.62733C51.3791 8.06847 52.4493 6.84904 53.7933 5.96904C55.1373 5.0639 56.668 4.61133 58.3853 4.61133C59.356 4.61133 60.2395 4.76219 61.036 5.0639C61.8573 5.34047 62.5666 5.73019 63.164 6.23304C63.7862 6.7359 64.3088 7.31419 64.732 7.9679C65.1551 8.62161 65.4537 9.32561 65.628 10.0799L64.508 9.89133V5.02619H69.772V24.977H64.4333V20.1873L65.628 20.0742C65.4289 20.7782 65.1053 21.4445 64.6573 22.073C64.2093 22.7016 63.6493 23.2673 62.9773 23.7702C62.3302 24.2479 61.596 24.6376 60.7746 24.9393C59.9533 25.2159 59.0822 25.3542 58.1613 25.3542ZM59.6173 20.7153C60.6128 20.7153 61.484 20.4765 62.2306 19.9988C62.9773 19.521 63.5497 18.8548 63.948 17.9999C64.3711 17.1199 64.5826 16.1016 64.5826 14.945C64.5826 13.8136 64.3711 12.8205 63.948 11.9656C63.5497 11.1108 62.9773 10.4445 62.2306 9.96676C61.484 9.4639 60.6128 9.21247 59.6173 9.21247C58.6466 9.21247 57.788 9.4639 57.0413 9.96676C56.3195 10.4445 55.7471 11.1108 55.324 11.9656C54.9008 12.8205 54.6893 13.8136 54.6893 14.945C54.6893 16.1016 54.9008 17.1199 55.324 17.9999C55.7471 18.8548 56.3195 19.521 57.0413 19.9988C57.788 20.4765 58.6466 20.7153 59.6173 20.7153Z" fill="black"/>
<path d="M39.1214 25.3542C37.2298 25.3542 35.5374 24.9016 34.044 23.9965C32.5507 23.0913 31.3685 21.8593 30.4974 20.3005C29.6511 18.7416 29.228 16.969 29.228 14.9828C29.228 13.0216 29.6511 11.2616 30.4974 9.70276C31.3685 8.11876 32.5507 6.87419 34.044 5.96904C35.5374 5.0639 37.2298 4.61133 39.1214 4.61133C40.8885 4.61133 42.5063 4.93819 43.9747 5.5919C45.4431 6.24561 46.588 7.15076 47.4094 8.30733L44.4974 11.8525C44.1489 11.3748 43.7134 10.9473 43.1907 10.5702C42.668 10.1679 42.0956 9.85362 41.4734 9.62733C40.876 9.40104 40.2538 9.2879 39.6067 9.2879C38.5862 9.2879 37.6778 9.53933 36.8814 10.0422C36.1098 10.5199 35.5 11.1862 35.052 12.041C34.604 12.8959 34.38 13.8765 34.38 14.9828C34.38 16.0639 34.604 17.0319 35.052 17.8868C35.5249 18.7165 36.1596 19.3953 36.956 19.9233C37.7525 20.4262 38.6485 20.6776 39.644 20.6776C40.2911 20.6776 40.9009 20.5896 41.4734 20.4136C42.0458 20.2125 42.5809 19.9233 43.0787 19.5462C43.6014 19.169 44.0743 18.7165 44.4974 18.1885L47.372 21.7336C46.5258 22.8148 45.356 23.6948 43.8627 24.3736C42.3694 25.0273 40.7889 25.3542 39.1214 25.3542Z" fill="black"/>
<path fill-rule="evenodd" clip-rule="evenodd" d="M23.9981 5.34643C25.015 6.29338 25.0795 7.89381 24.1421 8.92109L9.95064 24.4735C9.01325 25.5008 7.42899 25.5659 6.41208 24.619C5.39518 23.672 5.33071 22.0716 6.26809 21.0443L20.4595 5.49189C21.3969 4.46461 22.9812 4.39948 23.9981 5.34643Z" fill="#2C71D9"/>
<path fill-rule="evenodd" clip-rule="evenodd" d="M6.41215 5.34644C7.42905 4.39949 9.01332 4.46461 9.9507 5.4919L24.1421 21.0443C25.0795 22.0716 25.0151 23.6721 23.9981 24.619C22.9812 25.566 21.397 25.5008 20.4596 24.4735L6.26816 8.9211C5.33078 7.89382 5.39524 6.29339 6.41215 5.34644Z" fill="#2C71D9"/>
</svg>
