<?xml version="1.0" encoding="UTF-8"?>
<svg width="100pt" height="100pt" version="1.1" viewBox="0 0 100 100" xmlns="http://www.w3.org/2000/svg">
 <path d="m86.125 24.695c-0.027344-0.0625-0.070312-0.11328-0.10938-0.16797-0.03125-0.046875-0.058594-0.10547-0.097656-0.14453-0.09375-0.09375-0.19922-0.16406-0.32422-0.21484l-0.62109-0.25781c-1.1172-0.46875-2.2305-0.92969-3.3242-1.3984-0.019532-0.011719-0.042969-0.003907-0.070313-0.011719-0.058594-0.023438-0.11719-0.03125-0.18359-0.039062-0.066406-0.007813-0.125-0.019532-0.1875-0.015626-0.058593 0.003907-0.11328 0.019532-0.17969 0.035157-0.058594 0.015625-0.125 0.03125-0.18359 0.058593-0.019531 0.011719-0.042969 0.011719-0.0625 0.019532-2.5859 1.4688-5.1836 2.9297-7.7773 4.3789v-5.0195c0-0.039063-0.015625-0.070313-0.019531-0.10547-0.007813-0.0625-0.015625-0.12109-0.039063-0.17969-0.015624-0.066406-0.042968-0.12109-0.074218-0.17969-0.027344-0.054687-0.058594-0.10156-0.097656-0.14844-0.042969-0.050782-0.085938-0.09375-0.14063-0.13672-0.027343-0.019531-0.042968-0.054688-0.074218-0.074219l-2.8203-1.8555c-0.37109-0.24219-0.83984-0.18359-1.1562 0.089844-0.03125 0.011719-0.058593 0.019531-0.085937 0.035156-0.011719 0.007813-0.019532 0-0.03125 0.007813l-0.74219 0.46094c-0.77734 0.48438-1.5664 0.97656-2.3398 1.4375-0.019531 0.015625-0.03125 0.042969-0.054687 0.058594-0.097656 0.066406-0.17969 0.15234-0.24219 0.25-0.023438 0.035156-0.050782 0.0625-0.070313 0.10156-0.066406 0.13281-0.11328 0.27344-0.11328 0.43359v9.4453l-4.1211 2.3828v-5.6875c0-0.03125-0.011719-0.058594-0.015625-0.085937-0.003906-0.050781-0.015625-0.10156-0.03125-0.15234-0.015625-0.074219-0.039063-0.14453-0.074219-0.21484-0.011718-0.015625-0.011718-0.039062-0.019531-0.054687-0.015625-0.03125-0.042969-0.046875-0.0625-0.070313-0.042969-0.058593-0.09375-0.11719-0.14453-0.16406-0.050782-0.039063-0.097656-0.066407-0.14453-0.097657-0.058593-0.03125-0.11328-0.058593-0.17187-0.078124-0.0625-0.023438-0.12891-0.03125-0.19531-0.039063-0.039063-0.003906-0.070313-0.023437-0.11328-0.023437-0.023438 0-0.042969 0.015624-0.070313 0.015624-0.058593 0.003907-0.11719 0.019532-0.18359 0.039063-0.0625 0.019531-0.12891 0.039063-0.1875 0.066406-0.019532 0.011719-0.042969 0.011719-0.066407 0.023438-0.003906 0.003906-0.21484 0.13672-0.22266 0.13672l-0.24609 0.15234c-1.4805 0.96875-2.9336 1.8984-4.4062 2.8398v-4.5781c2.7695-1.5898 5.5117-3.1562 8.2734-4.7227 0.015625-0.007813 0.015625-0.03125 0.03125-0.039063 0.19531-0.12109 0.33594-0.30469 0.40625-0.52344 0.011719-0.03125 0.011719-0.054688 0.019531-0.082032 0.011719-0.070312 0.039062-0.13672 0.039062-0.20703l-0.011718-3.7344c0-0.039062-0.015625-0.070312-0.023438-0.10547-0.003906-0.074219-0.015625-0.14453-0.042968-0.21484-0.015626-0.054688-0.042969-0.10156-0.070313-0.15234-0.03125-0.058594-0.0625-0.10938-0.11328-0.16016-0.042969-0.054688-0.097656-0.09375-0.15234-0.13672-0.03125-0.023437-0.050781-0.058594-0.085938-0.074219-0.70312-0.41016-1.4023-0.80859-2.1172-1.2109l-0.90625-0.51172c-0.011719-0.007812-0.027344-0.007812-0.035156-0.015625-0.058594-0.03125-0.125-0.039063-0.18359-0.058594-0.058594-0.015625-0.11719-0.039062-0.17969-0.042969-0.054688-0.007812-0.11328 0.007813-0.16797 0.011719-0.070313 0.007813-0.14062 0.011719-0.21094 0.03125-0.011719 0.003907-0.027343 0-0.035156 0.003907-0.10547 0.035156-0.1875 0.085937-0.37109 0.17969-1.1719 0.67188-2.3555 1.3359-3.5391 1.9961l-0.69141 0.39062-0.007812-8.9219c0-0.054688-0.019531-0.10156-0.03125-0.15234-0.003906-0.03125-0.011719-0.054687-0.015625-0.082031-0.058594-0.22656-0.1875-0.41016-0.37109-0.54297-0.011719-0.011719-0.011719-0.03125-0.027343-0.039063l-0.87109-0.57031c-0.83203-0.54297-1.6758-1.0898-2.5195-1.625-0.37109-0.23828-0.83594-0.17969-1.1523 0.09375-0.039063 0.019531-0.082031 0.027344-0.12109 0.050781-0.003906 0.003907-0.007813 0-0.011719 0.003907-1.0469 0.6875-2.1211 1.375-3.168 2.0391-0.023438 0.015625-0.03125 0.042969-0.054688 0.058594-0.089844 0.066406-0.16406 0.14453-0.22656 0.24219-0.019532 0.035157-0.046876 0.066407-0.066407 0.10156-0.066406 0.12891-0.10938 0.27344-0.10938 0.42578v8.9219l-4.4336-2.4961c-0.011718-0.007812-0.019531-0.007812-0.027343-0.011718-0.070313-0.035157-0.14453-0.050782-0.21875-0.070313-0.046875-0.011719-0.097657-0.03125-0.14453-0.039063-0.0625-0.003906-0.12891 0.011719-0.19531 0.015626-0.0625 0.007812-0.125 0.007812-0.18359 0.027343-0.015625 0.003907-0.023437 0-0.039062 0.003907-0.074219 0.027343-0.15234 0.0625-0.35547 0.15625l-2.8008 1.4141c-0.019531 0.011719-0.03125 0.035156-0.050781 0.046875-0.11719 0.070313-0.21484 0.16016-0.29297 0.27344-0.023438 0.03125-0.046875 0.0625-0.070313 0.10156-0.074218 0.13672-0.12891 0.28906-0.12891 0.45703v3.9297c0 0.16016 0.050781 0.30859 0.11719 0.44141 0.019531 0.035156 0.042968 0.066406 0.066406 0.10156 0.070312 0.10156 0.15234 0.18359 0.25781 0.25391 0.019532 0.015625 0.03125 0.042969 0.058594 0.058593 2.7656 1.5664 5.5352 3.1328 8.3008 4.7227v4.6289c-1.5781-0.94922-3.1445-1.9023-4.7305-2.8789-0.019531-0.015625-0.046874-0.015625-0.066406-0.023438-0.058594-0.03125-0.11719-0.050781-0.18359-0.066406-0.066406-0.019531-0.125-0.035156-0.1875-0.039063-0.027343 0-0.046874-0.015624-0.074218-0.015624-0.039063 0-0.074219 0.019531-0.10938 0.019531-0.066407 0.007812-0.12891 0.019531-0.19531 0.039062-0.058594 0.019531-0.11328 0.046875-0.16797 0.074219-0.054688 0.03125-0.10547 0.0625-0.15234 0.10156-0.050782 0.042969-0.09375 0.09375-0.13672 0.14453-0.023437 0.027344-0.058594 0.046875-0.074219 0.082031-0.011718 0.015625-0.003906 0.035156-0.015625 0.054687-0.074219 0.13672-0.12891 0.28906-0.12891 0.46094v5.2812l-4.5156-2.5859v-9.4453c0-0.046875-0.023438-0.089844-0.027344-0.13672-0.007812-0.058593-0.015625-0.11719-0.035156-0.17578-0.023438-0.066406-0.058594-0.125-0.09375-0.18359-0.027344-0.050781-0.054688-0.09375-0.09375-0.13672-0.050781-0.058594-0.10938-0.10156-0.17188-0.14844-0.03125-0.019531-0.046875-0.050781-0.082031-0.070312l-0.85547-0.48438c-0.74219-0.41406-1.4922-0.83984-2.2266-1.2734-0.36719-0.21875-0.8125-0.16016-1.125 0.10156-0.027343 0.011718-0.058593 0.015624-0.085937 0.027343-0.47656 0.27344-0.96484 0.53906-1.4492 0.80859-0.49609 0.27344-0.99219 0.54297-1.4805 0.82422-0.023438 0.015625-0.03125 0.039062-0.054688 0.054687-0.10156 0.070313-0.1875 0.15234-0.25781 0.25391-0.023438 0.035156-0.050782 0.066406-0.070313 0.10156-0.066406 0.13672-0.11719 0.28125-0.11719 0.44141v4.8984l-7.2734-4.1445c-0.007812-0.007812-0.019531-0.007812-0.027344-0.007812-0.0625-0.035156-0.12891-0.046875-0.19531-0.066406-0.058594-0.015625-0.10938-0.039063-0.16406-0.046875-0.058593-0.003907-0.11719 0.011719-0.17969 0.015625-0.066406 0.003906-0.13281 0.003906-0.19531 0.023437-0.27734-0.019531-0.53516 0.10156-0.73047 0.31641l-3.1953 1.4727c-0.015625 0.007812-0.023438 0.023437-0.035156 0.03125-0.13281 0.070312-0.24219 0.17188-0.33203 0.29297-0.023437 0.03125-0.046874 0.0625-0.066406 0.10156-0.078125 0.14062-0.13672 0.29297-0.13672 0.46484v4.1523c0 0.16016 0.046874 0.30469 0.11328 0.43359 0.019531 0.039063 0.046875 0.066406 0.070312 0.10156 0.066407 0.097656 0.14453 0.17969 0.23828 0.25 0.023438 0.015625 0.03125 0.042969 0.058594 0.058593l7.4766 4.4453c-1.3828 0.76562-2.7578 1.5312-4.1445 2.3281-0.023438 0.011719-0.035157 0.042969-0.058594 0.058594-0.097656 0.066406-0.17969 0.14844-0.25 0.25-0.023438 0.035156-0.050782 0.0625-0.070313 0.10547-0.066406 0.13281-0.11719 0.27734-0.11719 0.4375v3.6016c0 0.15234 0.042968 0.29297 0.10547 0.42188 0.015626 0.035156 0.042969 0.066406 0.066407 0.097656 0.058593 0.09375 0.12891 0.17188 0.21484 0.24219 0.019532 0.015625 0.03125 0.042968 0.050782 0.058594 0.44922 0.29687 0.88281 0.60937 1.3125 0.92187 0.41016 0.29297 0.83203 0.58984 1.293 0.89063 0.023438 0.023437 0.050782 0.035156 0.074219 0.054687 0.019531 0.015625 0.039063 0.023437 0.058594 0.039063 0.007813 0.007812 0.023437 0.003906 0.035156 0.011718 0.17188 0.15625 0.38672 0.23828 0.61719 0.24609 0.027343 0.003906 0.046875 0.007812 0.074219 0.003906 0.15234-0.003906 0.30078-0.03125 0.44141-0.10938 2.8047-1.5742 5.6367-3.1484 8.4727-4.7227l4.2812 2.2461c-1.4844 0.85547-2.9922 1.7227-4.5938 2.6523l0.003906 0.011719c-0.13672 0.078125-0.25781 0.17969-0.34766 0.32031-0.10156 0.16016-0.15234 0.33984-0.15234 0.51953 0 0.32812 0.16406 0.64453 0.46094 0.83203l4.6562 2.9102c-1.4531 0.91406-2.9062 1.832-4.3477 2.7461-1.9062-1.1133-3.8164-2.2383-5.7148-3.3594l-2.707-1.5977c-0.007812-0.003906-0.019531-0.003906-0.027343-0.011719-0.0625-0.03125-0.13281-0.046875-0.19922-0.066406-0.054688-0.015625-0.10938-0.039062-0.16406-0.046875-0.054688-0.003906-0.10938 0.007813-0.16797 0.011719-0.070313 0.003906-0.14062 0.003906-0.21094 0.023437-0.007812 0.003907-0.019531 0-0.03125 0.003907-0.14844 0.050781-0.25391 0.11328-0.39844 0.1875l-1.1602 0.64453c-0.55469 0.30469-1.1016 0.60156-1.6406 0.91016-0.023437 0.015625-0.035156 0.042969-0.058593 0.058594-0.10156 0.066406-0.17969 0.14844-0.25 0.25-0.023438 0.035156-0.050781 0.066406-0.070313 0.10547-0.066406 0.13281-0.11719 0.27734-0.11719 0.4375v3.7617c0 0.16016 0.046875 0.30859 0.11719 0.44141 0.019532 0.039063 0.042969 0.070313 0.070313 0.10156 0.070312 0.10547 0.15234 0.1875 0.26172 0.26172 0.019531 0.011718 0.027343 0.039062 0.054687 0.054687l4.293 2.4102c-2.5938 1.4844-5.1914 2.9688-7.7852 4.4258-0.023438 0.015625-0.03125 0.042969-0.058594 0.058593-0.10156 0.066407-0.18359 0.15234-0.25391 0.25-0.023438 0.035157-0.050782 0.0625-0.074219 0.10547-0.066407 0.13672-0.11719 0.27734-0.11719 0.4375v3.9609c0 0.15625 0.046875 0.29688 0.10938 0.43359 0.019532 0.039063 0.050782 0.0625 0.070313 0.10156 0.066406 0.097656 0.14062 0.17188 0.23047 0.24219 0.023437 0.015626 0.03125 0.042969 0.058593 0.058594l3.1289 1.9062c0.023437 0.015625 0.24219 0.14062 0.26953 0.15234 0.023437 0.011719 0.046875 0.011719 0.074219 0.019531 0.066406 0.027344 0.13672 0.039063 0.20703 0.050781 0.035156 0.003907 0.070312 0.011719 0.10547 0.011719 0.17187 0.011719 0.34766-0.011719 0.50781-0.097656 2.6992-1.4531 5.3906-2.9062 8.0703-4.3672v5.3281c0 0.17188 0.058594 0.32422 0.13672 0.46484 0.019531 0.039063 0.039063 0.066406 0.066407 0.10156 0.085937 0.11719 0.19141 0.21875 0.32031 0.28516 0.015625 0.003906 0.023438 0.027344 0.039062 0.03125 0.57422 0.27344 1.1562 0.52734 1.7344 0.78516 0.50781 1.1445 1.0938 2.2656 1.8516 3.3242 0.20703 0.27734 0.39062 0.55078 0.57422 0.77344l0.3125 0.41406c0.12891 0.22266 0.25781 0.38281 0.39062 0.55078 0.56641 0.85938 1.0117 1.8008 1.2695 2.7969 0.23828 0.91406 0.33984 1.6328 0.33984 2.3242v0.39062c0 2.4336-0.77734 4.5391-2.3398 6.5039-1.3789 1.6875-1.2461 3.4844 0.39062 4.9219 0.10156 0.16797 0.23047 0.25 0.33984 0.36328 0.96094 0.71875 2.0273 1.082 3.1719 1.082h0.51953c1.3516-0.085938 2.5469-0.66406 3.4336-1.6641 2.7773-3.4258 4.1562-7.1641 4.082-11.203 0-1.1602-0.074219-2.2148-0.23047-3.1016 0-0.027344-0.027344-0.027344-0.027344-0.027344l0.019532-0.042969c-0.16797-0.72656-0.39062-1.4062-0.59766-2.0977l3.3242-1.8438v8.9062c0 0.15625 0.042969 0.29688 0.10547 0.42578 0.015625 0.03125 0.042969 0.058594 0.0625 0.09375 0.0625 0.097656 0.13672 0.17969 0.22656 0.25 0.019531 0.015625 0.027343 0.035156 0.046874 0.054688l1.4922 0.97266c-0.38672 0.94141-0.89844 1.8555-1.582 2.7031-1.3516 1.5781-1.1445 3.6289 0.46875 5.0625 0 0.027344 0.20312 0.16797 0.20312 0.16797 0.88672 0.71875 2.082 1.1367 3.2461 1.1367h0.46875c1.4297-0.085937 2.6758-0.69141 3.4336-1.6914 2.7305-3.3438 4.1602-7.1914 4.1602-11.176 0-0.88672-0.10547-1.8281-0.3125-2.875v-0.03125c-0.17188-0.96875-0.375-1.7461-0.61719-2.4805 0.54688 0.30859 1.0742 0.60156 1.6484 0.92969 0.066406 0.039062 0.24219 0.125 0.3125 0.14453 0.011718 0.007813 0.015624 0 0.027343 0.007813 0.074219 0.019531 0.15625 0.019531 0.23828 0.027343 0.042969 0 0.085938 0.011719 0.12891 0.011719 0.13672-0.015625 0.26953-0.050781 0.39453-0.11719 0.58594-0.33594 1.1523-0.66406 1.7266-1 0.019532 0.027344 0.027344 0.050782 0.027344 0.074219 0.51953 0.74609 0.9375 1.6602 1.25 2.7695 0.20312 0.88672 0.3125 1.6875 0.3125 2.5469 0 2.3516-0.78516 4.5117-2.3945 6.5-1.4062 1.7734-1.2461 3.5156 0.47266 5.0117 0.074219 0.10547 0.17969 0.19531 0.25781 0.24609 0.96094 0.74609 2.0273 1.1094 3.1719 1.1094h0.51953c1.4258-0.085937 2.5469-0.63672 3.4805-1.6914 2.7344-3.3984 4.1133-7.1641 4.1133-11.176 0-0.96875-0.13672-1.8281-0.23828-2.7695h-0.027344v-0.19531c-0.20703-1.1094-0.51953-2.2109-0.9375-3.2383h-0.027344v-0.027343c-0.46875-1.2578-1.1055-2.3867-1.8438-3.4531 0.20703 0.003906 0.41406-0.011719 0.58594-0.12891h0.007812c0.90625-0.63281 1.8438-1.2656 2.75-1.8711 0.015625-0.007813 0.015625-0.027344 0.027344-0.039063 0.18359-0.13672 0.30859-0.31641 0.36719-0.54688 0.003907-0.027344 0.011719-0.050781 0.015626-0.082031 0.007812-0.050781 0.027343-0.097656 0.027343-0.15234v-5.1328l2.0039 1.1602c1.9414 1.1133 3.8711 2.2266 5.7891 3.3516 0.03125 0.019531 0.070312 0.019531 0.10156 0.039062 0.066407 0.027344 0.125 0.046875 0.1875 0.058594 0.058594 0.015625 0.11719 0.019531 0.17969 0.019531 0.0625 0.003906 0.12891 0 0.1875-0.011719 0.066406-0.011718 0.125-0.027344 0.17969-0.050781 0.039062-0.015625 0.082031-0.015625 0.11328-0.03125l3.6289-1.8867c0.042969-0.019531 0.070313-0.054687 0.10156-0.082031 0.058593-0.042969 0.11328-0.082031 0.16016-0.12891 0.042968-0.050781 0.070312-0.10156 0.10156-0.15234 0.03125-0.058594 0.070313-0.11328 0.09375-0.17188 0.023438-0.058594 0.027344-0.11328 0.03125-0.17188 0.011719-0.054687 0.03125-0.10156 0.03125-0.15625v-4.2031c0-0.042969-0.015625-0.082031-0.023437-0.125-0.011719-0.070312-0.019531-0.14062-0.042969-0.20703-0.019531-0.058594-0.054688-0.10547-0.082031-0.15625-0.03125-0.058594-0.0625-0.11328-0.10938-0.16016-0.046875-0.054687-0.10156-0.09375-0.15625-0.12891-0.039063-0.027344-0.058594-0.0625-0.10156-0.085937l-2.8398-1.5391c-1.6758-0.90625-3.3398-1.8164-5.0117-2.7305 1.4492-0.8125 2.8906-1.625 4.3398-2.4219 0.039063-0.019531 0.058594-0.054687 0.097657-0.082031 0.054687-0.042969 0.10547-0.082031 0.15625-0.13672 0.042969-0.042968 0.074219-0.097656 0.10156-0.15234 0.03125-0.054688 0.066407-0.10156 0.085938-0.16016 0.019531-0.066406 0.03125-0.12891 0.039062-0.19922 0.011719-0.042969 0.027344-0.082032 0.027344-0.12891v-3.875c0-0.074219-0.027344-0.13672-0.035156-0.20313-0.011719-0.046874-0.011719-0.09375-0.03125-0.13672-0.027344-0.078125-0.074219-0.14453-0.11719-0.21094-0.027343-0.039062-0.050781-0.078125-0.074219-0.10938-0.058593-0.058593-0.125-0.10156-0.19531-0.14453-0.039062-0.023438-0.058594-0.058594-0.10156-0.078125-1.0977-0.52344-2.168-1.0664-3.2383-1.6172-0.03125-0.019532-0.070312-0.015626-0.10156-0.027344-0.066406-0.023438-0.11719-0.039063-0.18359-0.050782-0.0625-0.011718-0.12891-0.011718-0.1875-0.011718-0.066406 0.003906-0.11719 0.007812-0.17969 0.023437-0.070312 0.011719-0.12891 0.039063-0.19531 0.066407-0.03125 0.015624-0.066406 0.015624-0.097656 0.03125l-0.47656 0.28125c-2.582 1.5234-5.1562 3.043-7.7188 4.5469-1.3789-0.79297-2.75-1.5859-4.1172-2.3789 0.53125-0.32422 1.0508-0.65234 1.5781-0.97656 1.0156-0.62109 2.0273-1.2422 3.0352-1.8711 0.011719-0.007812 0.023437-0.023438 0.03125-0.03125 0.03125-0.019531 0.054687-0.046875 0.082031-0.066406 0.042969-0.035156 0.074219-0.074219 0.10547-0.10938 0.027344-0.035157 0.058594-0.066407 0.082031-0.10156 0.007813-0.011718 0.019532-0.019531 0.027344-0.03125 0.003906-0.011718 0-0.023437 0.003906-0.035156 0.027344-0.050781 0.050782-0.10156 0.066406-0.15625 0.019532-0.0625 0.03125-0.125 0.039063-0.1875 0.003906-0.035156 0.019531-0.066406 0.019531-0.10547 0-0.027343-0.011718-0.050781-0.015625-0.074219 0-0.050781-0.011719-0.10156-0.019531-0.14844-0.003906-0.023437-0.011719-0.039063-0.019531-0.0625-0.015625-0.058594-0.039063-0.11328-0.066407-0.16797-0.011718-0.019531-0.011718-0.042968-0.027343-0.066406-0.015625-0.03125-0.042969-0.042969-0.066407-0.070312-0.042968-0.058594-0.09375-0.10938-0.14453-0.15625-0.039062-0.03125-0.070312-0.058594-0.11328-0.082032-0.011719-0.003906-0.011719-0.019531-0.015625-0.023437l-1.8164-1.0391c-1.0195-0.58984-2.0508-1.1719-3.0742-1.7539 1.3359-0.78125 2.6953-1.5664 4.1172-2.3828 2.6445 1.5625 5.3281 3.1602 8.1562 4.8242l0.007812-0.011718c0.29688 0.19531 0.6875 0.23047 1.0117 0.046874 1.1289-0.63281 2.293-1.2656 3.4219-1.8711 0.035156-0.019531 0.0625-0.058594 0.10156-0.082031 0.054688-0.042969 0.10938-0.082032 0.15625-0.13672 0.042969-0.046875 0.070313-0.097657 0.10156-0.14844 0.03125-0.054687 0.066406-0.10938 0.085937-0.17188 0.019532-0.066406 0.03125-0.13281 0.042969-0.19922 0.007813-0.042969 0.019531-0.082032 0.019531-0.12891v-3.875c0-0.039062-0.015625-0.074219-0.019531-0.11328-0.011719-0.082031-0.015625-0.16016-0.046875-0.23047-0.015625-0.054687-0.054688-0.10156-0.082031-0.14453-0.03125-0.058594-0.0625-0.11719-0.11328-0.16797-0.042969-0.050781-0.10156-0.089843-0.16016-0.12891-0.035156-0.027344-0.0625-0.066406-0.10547-0.085937l-0.55078-0.27734c-1.2812-0.64844-2.5625-1.2852-3.8438-1.9258l8.0742-4.4141c0.03125-0.019531 0.054688-0.050781 0.085938-0.074219 0.0625-0.042969 0.125-0.085937 0.17187-0.14453 0.039063-0.042969 0.0625-0.09375 0.09375-0.14062 0.039063-0.058594 0.070313-0.11328 0.09375-0.17969 0.019532-0.0625 0.03125-0.12891 0.039063-0.19141 0.011719-0.046875 0.027344-0.085937 0.027344-0.12891v-4.2344-0.003906c0.003906-0.14844-0.023438-0.27734-0.074219-0.39453zm-29.23 37.109c-0.085937 0.72656-0.17188 1.4492-0.15625 2.1875-0.019531 0.89453 0.035157 1.7812 0.16797 2.6562l-2.4961-1.418v-4.7617c0.53516 0.28516 1.0703 0.57422 1.6016 0.85938 0.29297 0.16016 0.58594 0.3125 0.88281 0.47656zm-10.719-21.125h0.44141 5.9219c1.0547 1.5469 2.1016 3.125 3.1562 4.6758-1 1.6602-1.9922 3.3203-3.0156 5.0117h-5.9219-0.41797c-0.96875-1.6875-1.9375-3.3477-2.8789-5.0117 0.91797-1.5469 1.8047-3.125 2.7148-4.6758zm-9.3555 50.957c-0.39062 0.44141-0.88281 0.71875-1.5352 0.71875-0.64844 0.085937-1.168-0.082031-1.6094-0.39062-0.046875-0.10938-0.12891-0.1875-0.23047-0.27344-0.88672-0.74609-0.93359-1.4102-0.21094-2.2969 1.8477-2.2969 2.7812-4.8945 2.7812-7.6641 0.082031-1.2148-0.18359-2.4336-0.39062-3.2109v-0.027343c-0.33984-1.2148-0.85938-2.3516-1.5625-3.4023-0.019531-0.027344-0.050781-0.027344-0.074219-0.054688l0.027344-0.027344c-0.10156-0.10937-0.18359-0.22266-0.33984-0.44141l-0.33594-0.47266c-0.18359-0.27344-0.39062-0.55078-0.60156-0.83203-0.41406-0.57422-0.76172-1.1797-1.0898-1.7852-1.2227-2.2617-1.8711-4.7305-1.8711-7.2617 0-3.4844 1.25-6.9453 3.6094-9.9336 0.39062-0.44141 0.93359-0.71875 1.6172-0.74609 0.75-0.082031 1.2969 0.22266 1.7891 0.63672 0.78516 0.66406 0.88672 1.5469 0.26562 2.3242-0.53516 0.65625-0.97656 1.3555-1.3633 2.0742-0.42969 0.79297-0.74219 1.6172-0.98437 2.4648-0.29297 1.0352-0.48828 2.0938-0.48828 3.1797 0 1.1484 0.18359 2.25 0.48828 3.3164 0.33594 1.1719 0.86328 2.2812 1.5664 3.3359 0.11719 0.17969 0.21094 0.36719 0.33984 0.53906 0 0 0.027343 0 0.027343 0.03125h0.019531c0.26563 0.32812 0.46875 0.63281 0.73047 1.0195 0.83203 1.1055 1.5078 2.2969 2.0039 3.5117 0.10937 0.32812 0.19922 0.70703 0.30859 1.0586 0.19141 0.61719 0.39844 1.2227 0.54688 1.875 0.12891 0.80078 0.21094 1.6875 0.21094 2.793 0.046875 3.6328-1.1484 6.8711-3.6445 9.9414zm1.3633-22.363c-0.90625-1.5469-1.3945-3.2305-1.3945-5.0586 0-2.3242 0.81641-4.5352 2.3438-6.4609v4.8672c0 0.16797 0.054688 0.32031 0.12891 0.46094 0.011719 0.015625 0.003906 0.039063 0.015625 0.054688 0.019531 0.03125 0.050781 0.050781 0.074218 0.082031 0.039063 0.050781 0.085938 0.097656 0.13672 0.14453 0.050781 0.035157 0.10156 0.070313 0.15234 0.10156 0.054687 0.027344 0.10938 0.054687 0.16797 0.074218 0.0625 0.019532 0.12891 0.03125 0.19531 0.039063 0.035156 0.007813 0.070313 0.019531 0.10938 0.019531 0.023438 0 0.046875-0.011718 0.074219-0.011718 0.0625-0.003907 0.125-0.019532 0.1875-0.039063s0.12891-0.035156 0.1875-0.070313c0.019531-0.011718 0.046875-0.011718 0.066406-0.027343 0.47656-0.29297 0.94922-0.57422 1.4219-0.86328-0.039062 0.47656-0.12109 0.94531-0.12109 1.4258 0 1.0117 0.10937 2.0078 0.28516 2.9844-1.3398 0.76953-2.6836 1.5234-4.0312 2.2773zm13.363 22.195c-0.33594 0.41406-0.85547 0.69141-1.5078 0.69141-0.62109 0.085938-1.2422-0.10547-1.8438-0.60547-0.77734-0.69141-0.88672-1.5781-0.23047-2.3242 0.68359-0.83984 1.1992-1.7305 1.6367-2.6367 0.77734-1.6172 1.2031-3.3203 1.168-5.0586 0.054688-0.96875-0.046875-1.9883-0.33594-3.0156v-0.027343c-0.33984-1.2422-0.8125-2.3242-1.4844-3.3164v-0.027343c0-0.027344-0.023438-0.027344-0.023438-0.058594-0.12891-0.22266-0.3125-0.44141-0.49609-0.74609l-0.33594-0.41406c-0.21094-0.30469-0.41406-0.60547-0.60156-0.85547-1.6406-2.3164-2.5742-4.8164-2.8594-7.4297-0.058593-0.53516-0.12891-1.0703-0.12891-1.625 0-1.0742 0.14062-2.1094 0.35156-3.1289 0.50391-2.4062 1.5664-4.6641 3.2852-6.8047 0.39062-0.46875 0.88672-0.71875 1.5898-0.77344 0.64844-0.054688 1.168 0.10938 1.8438 0.63672 0.88672 0.77344 0.96484 1.4648 0.21094 2.3516-1.875 2.3516-2.8398 4.9258-2.8398 7.7188 0 2.6328 0.8125 5.0352 2.3945 7.1992h0.027344c0.027343 0 0.027343 0.027344 0.027343 0.027344 0.26172 0.32812 0.49219 0.63281 0.72656 1.0195 0.88672 1.1367 1.5625 2.3516 2.082 3.707v0.027344c0.015625 0.039062 0.027344 0.089844 0.042969 0.12891 0.3125 0.75 0.53906 1.6211 0.73438 2.7539v0.027344c0.18359 0.96875 0.28516 1.8008 0.28516 2.5742 0 3.5352-1.2695 6.9688-3.7188 9.9844zm18.242-12.648c0 0.058594 0.027344 0.085938 0.027344 0.11328h-0.027344c0.10156 0.85938 0.21094 1.6875 0.21094 2.5469 0 3.625-1.1992 6.8906-3.6172 9.9336-0.44141 0.52344-0.88672 0.74609-1.6094 0.74609-0.62891 0.085938-1.1172-0.082031-1.6172-0.41016-0.046875-0.085938-0.10156-0.14062-0.17969-0.22266-0.91406-0.77734-0.98828-1.3828-0.26172-2.3281 1.8984-2.3516 2.832-4.9492 2.832-7.7188 0-0.99609-0.10156-1.9688-0.36328-3.0156l-0.027344-0.027344c-0.33984-1.2734-0.83203-2.2969-1.4336-3.2109-0.027344-0.054687-0.050781-0.10547-0.074218-0.14062l-0.027344-0.027344c-0.10156-0.19531-0.18359-0.32812-0.3125-0.49609l-0.13672-0.1875-0.023437-0.03125c-0.28516-0.39062-0.56641-0.80078-0.88281-1.2695-1.0859-1.4961-1.8477-3.0703-2.3398-4.6992-0.42578-1.4141-0.65234-2.8711-0.62891-4.3789-0.007813-0.28906 0.050781-0.56641 0.058594-0.85547 0.089843-2.0742 0.60156-4.043 1.5508-5.918 0.054688-0.10547 0.09375-0.21094 0.14453-0.3125 0.51172-0.96094 1.1055-1.9023 1.8594-2.8203 0.41797-0.46875 0.90625-0.71875 1.5352-0.77344 0.64844-0.054687 1.1953 0.10938 1.8438 0.63672 0.88672 0.77344 0.96094 1.4648 0.23828 2.3516-0.71094 0.88281-1.2422 1.8164-1.6797 2.7812-0.70312 1.5469-1.1016 3.1875-1.1016 4.9102-0.074219 2.6055 0.73047 5.0352 2.3672 7.1406v0.027343l0.75 1.1094c0.88672 1.1367 1.5352 2.3516 2.0547 3.707h0.027343v0.027343c0.37109 0.87891 0.66016 1.875 0.84375 2.8125z"/>
</svg>
