<svg width="589" height="120" viewBox="0 0 589 120" fill="none" xmlns="http://www.w3.org/2000/svg">
<path d="M538.289 119.54C525.905 119.54 515.105 117.02 505.889 111.98C496.673 106.94 489.473 100.028 484.289 91.2439C479.105 82.4599 476.513 72.3799 476.513 61.0039C476.513 52.2199 477.953 44.1559 480.833 36.8119C483.713 29.4679 487.745 23.1319 492.929 17.8039C498.113 12.3319 504.233 8.15587 511.289 5.27587C518.489 2.25187 526.265 0.739868 534.617 0.739868C542.393 0.739868 549.593 2.17987 556.217 5.05986C562.841 7.79586 568.529 11.7559 573.281 16.9399C578.177 21.9799 581.921 27.9559 584.513 34.8679C587.105 41.7799 588.257 49.3399 587.969 57.5479L587.753 67.0519H495.953L490.985 48.2599H562.481L559.025 52.1479V47.3959C558.737 43.5079 557.441 39.9799 555.137 36.8119C552.977 33.6439 550.169 31.1959 546.713 29.4679C543.257 27.7399 539.369 26.8759 535.049 26.8759C528.713 26.8759 523.313 28.0999 518.849 30.5479C514.529 32.9959 511.217 36.5959 508.913 41.3479C506.609 46.0999 505.457 51.8599 505.457 58.6279C505.457 65.5399 506.897 71.5159 509.777 76.5559C512.801 81.5959 516.977 85.5559 522.305 88.4359C527.777 91.1719 534.185 92.5399 541.529 92.5399C546.569 92.5399 551.177 91.7479 555.353 90.1639C559.529 88.5799 563.993 85.8439 568.745 81.9559L583.433 102.476C579.257 106.22 574.649 109.388 569.609 111.98C564.569 114.428 559.385 116.3 554.057 117.596C548.729 118.892 543.473 119.54 538.289 119.54Z" fill="white"/>
<path d="M394.214 117.38V3.11587H423.806L424.886 39.8359L419.702 32.2759C421.43 26.3719 424.238 21.0439 428.126 16.2919C432.014 11.3959 436.55 7.57987 441.734 4.84387C447.062 2.10787 452.606 0.739868 458.366 0.739868C460.814 0.739868 463.19 0.95587 465.494 1.38787C467.798 1.81987 469.742 2.32386 471.326 2.89987L463.118 36.5959C461.39 35.7319 459.302 35.0119 456.854 34.4359C454.406 33.7159 451.886 33.3559 449.294 33.3559C445.838 33.3559 442.598 34.0039 439.574 35.2999C436.694 36.4519 434.174 38.1799 432.014 40.4839C429.854 42.6439 428.126 45.2359 426.83 48.2599C425.678 51.2839 425.102 54.5959 425.102 58.1959V117.38H394.214Z" fill="white"/>
<path d="M296.287 119.54C286.783 119.54 278.215 116.948 270.583 111.764C262.951 106.58 256.903 99.5239 252.439 90.5959C247.975 81.6679 245.743 71.4439 245.743 59.9239C245.743 48.4039 247.975 38.2519 252.439 29.4679C257.047 20.5399 263.239 13.5559 271.015 8.51587C278.791 3.33187 287.647 0.739868 297.583 0.739868C303.199 0.739868 308.311 1.60387 312.919 3.33188C317.671 4.91587 321.775 7.14787 325.231 10.0279C328.831 12.9079 331.855 16.2199 334.303 19.9639C336.751 23.7079 338.479 27.7399 339.487 32.0599L333.007 30.9799V3.11587H363.463V117.38H332.575V89.9479L339.487 89.2999C338.335 93.3319 336.463 97.1479 333.871 100.748C331.279 104.348 328.039 107.588 324.151 110.468C320.407 113.204 316.159 115.436 311.407 117.164C306.655 118.748 301.615 119.54 296.287 119.54ZM304.711 92.9719C310.471 92.9719 315.511 91.6039 319.831 88.8679C324.151 86.1319 327.463 82.3159 329.767 77.4199C332.215 72.3799 333.439 66.5479 333.439 59.9239C333.439 53.4439 332.215 47.7559 329.767 42.8599C327.463 37.9639 324.151 34.1479 319.831 31.4119C315.511 28.5319 310.471 27.0919 304.711 27.0919C299.095 27.0919 294.127 28.5319 289.807 31.4119C285.631 34.1479 282.319 37.9639 279.871 42.8599C277.423 47.7559 276.199 53.4439 276.199 59.9239C276.199 66.5479 277.423 72.3799 279.871 77.4199C282.319 82.3159 285.631 86.1319 289.807 88.8679C294.127 91.6039 299.095 92.9719 304.711 92.9719Z" fill="white"/>
<path d="M186.128 119.54C175.184 119.54 165.392 116.948 156.752 111.764C148.112 106.58 141.272 99.5239 136.232 90.5959C131.336 81.6679 128.888 71.5159 128.888 60.1399C128.888 48.9079 131.336 38.8279 136.232 29.8999C141.272 20.8279 148.112 13.6999 156.752 8.51587C165.392 3.33187 175.184 0.739868 186.128 0.739868C196.352 0.739868 205.712 2.61187 214.208 6.35587C222.704 10.0999 229.328 15.2839 234.08 21.9079L217.232 42.2119C215.216 39.4759 212.696 37.0279 209.672 34.8679C206.648 32.5639 203.336 30.7639 199.736 29.4679C196.28 28.1719 192.68 27.5239 188.936 27.5239C183.032 27.5239 177.776 28.9639 173.168 31.8439C168.704 34.5799 165.176 38.3959 162.584 43.2919C159.992 48.1879 158.696 53.8039 158.696 60.1399C158.696 66.3319 159.992 71.8759 162.584 76.7719C165.32 81.5239 168.992 85.4119 173.6 88.4359C178.208 91.3159 183.392 92.7559 189.152 92.7559C192.896 92.7559 196.424 92.2519 199.736 91.2439C203.048 90.0919 206.144 88.4359 209.024 86.2759C212.048 84.1159 214.784 81.5239 217.232 78.4999L233.864 98.8039C228.968 104.996 222.2 110.036 213.56 113.924C204.92 117.668 195.776 119.54 186.128 119.54Z" fill="white"/>
<path fill-rule="evenodd" clip-rule="evenodd" d="M99.7311 4.14996C105.213 9.20333 105.561 17.744 100.507 23.2261L24.0023 106.221C18.9489 111.703 10.4082 112.051 4.92618 106.998C-0.555892 101.944 -0.903422 93.4035 4.14995 87.9214L80.655 4.92619C85.7083 -0.55588 94.249 -0.903409 99.7311 4.14996Z" fill="#2C71D9"/>
<path fill-rule="evenodd" clip-rule="evenodd" d="M4.92625 4.14994C10.4083 -0.903434 18.949 -0.555905 24.0024 4.92616L100.507 87.9214C105.561 93.4035 105.213 101.944 99.7311 106.998C94.2491 112.051 85.7084 111.703 80.655 106.221L4.15003 23.226C-0.903341 17.744 -0.555813 9.20331 4.92625 4.14994Z" fill="#2C71D9"/>
</svg>
